<svg id="Icon_Set" enable-background="new 0 0 256 256" height="512" viewBox="0 0 256 256" width="512" xmlns="http://www.w3.org/2000/svg"><circle cx="128" cy="101.041" fill="#3193f3" r="96.349"/><path d="m159.445 176.738h14.198v42.61h-14.198z" fill="#87828e" transform="matrix(.707 -.707 .707 .707 -91.258 175.77)"/><path d="m211.477 248.38 5.425-5.425c3.893-3.893 3.893-10.206 0-14.1l-23.11-23.11c-3.905-3.905-10.237-3.905-14.142 0l-5.404 5.404c-3.905 3.905-3.905 10.237 0 14.142l23.088 23.088c3.906 3.906 10.238 3.906 14.143.001z" fill="#87828e"/><path d="m224.35 101.041c0 53.21-43.14 96.35-96.35 96.35-2.52 0-5.03-.1-7.5-.29 49.71-3.83 88.85-45.37 88.85-96.06s-39.14-92.23-88.85-96.06c2.47-.19 4.98-.29 7.5-.29 53.21 0 96.35 43.14 96.35 96.35z" fill="#307fed"/><path d="m135.5 197.101c-2.47.19-4.98.29-7.5.29-53.21 0-96.35-43.14-96.35-96.35s43.14-96.35 96.35-96.35c2.52 0 5.03.1 7.5.29-49.71 3.83-88.85 45.37-88.85 96.06s39.14 92.23 88.85 96.06z" fill="#35b1fc"/><ellipse cx="128.029" cy="163.569" fill="#87828e" rx="48.029" ry="48.029" transform="matrix(.707 -.707 .707 .707 -78.162 138.438)"/><path d="m216.37 243.491-4.89 4.89c-3.91 3.9-10.24 3.9-14.14 0l-23.09-23.09c-3.91-3.91-3.91-10.24 0-14.14l5.4-5.41c.92-.92 1.98-1.63 3.12-2.11l-.52.52c-3.91 3.9-3.91 10.23 0 14.14l23.09 23.09c2.98 2.98 7.38 3.68 11.03 2.11z" fill="#a4a4a5"/><path d="m176.06 163.571c0 26.48-21.55 48.03-48.03 48.03-2.55 0-5.06-.2-7.5-.58 22.93-3.62 40.53-23.52 40.53-47.45 0-23.94-17.6-43.83-40.53-47.45 2.44-.38 4.95-.58 7.5-.58 26.48 0 48.03 21.54 48.03 48.03z" fill="#796e84"/><path d="m135.53 211.021c-2.44.38-4.95.58-7.5.58-26.48 0-48.03-21.55-48.03-48.03 0-26.49 21.55-48.03 48.03-48.03 2.55 0 5.06.2 7.5.58-22.93 3.62-40.53 23.51-40.53 47.45 0 23.93 17.6 43.83 40.53 47.45z" fill="#a4a4a5"/><circle cx="128.029" cy="163.568" fill="#5fcdff" r="33.867"/><path d="m161.9 163.571c0 18.7-15.17 33.86-33.87 33.86-2.58 0-5.09-.29-7.5-.84 15.09-3.41 26.37-16.9 26.37-33.02 0-16.13-11.28-29.62-26.37-33.03 2.41-.55 4.92-.84 7.5-.84 18.7 0 33.87 15.16 33.87 33.87z" fill="#30b6ff"/><path d="m135.53 196.591c-2.41.55-4.92.84-7.5.84-18.71 0-33.87-15.16-33.87-33.86 0-18.71 15.16-33.87 33.87-33.87 2.58 0 5.09.29 7.5.84-15.1 3.41-26.37 16.9-26.37 33.03 0 16.12 11.27 29.611 26.37 33.02z" fill="#73d7f9"/><g fill="#5f266d"><path d="m165.9 163.57c0-20.911-17.014-37.87-37.87-37.87-20.749 0-37.87 16.838-37.87 37.87 0 24.804 19.597 37.86 37.87 37.86 23.87 0 37.87-19.366 37.87-37.86zm-67.74 0c0-16.433 13.385-29.87 29.87-29.87 16.506 0 29.87 13.462 29.87 29.87 0 15.976-12.88 29.82-29.9 29.82-16.818 0-29.84-13.685-29.84-29.82z"/><path d="m196.62 202.92c-3.58-3.58-8.62-4.81-13.21-3.71l-9.14-9.14c32.242-16.822 54.08-50.53 54.08-89.03 0-55.498-45.209-100.35-100.35-100.35-55.325 0-100.35 45.034-100.35 100.35 0 39.217 22.743 73.725 56.31 90.15 9.21 14.65 25.52 24.41 44.07 24.41 11.38 0 21.91-3.67 30.48-9.89l9.2 9.2c-1.1 4.59.13 9.63 3.71 13.21l23.09 23.09c2.64 2.64 6.16 4.1 9.9 4.1s7.25-1.46 9.9-4.1l5.42-5.43c5.45-5.44 5.45-14.31 0-19.75zm17.45 37.21-5.42 5.42c-1.13 1.13-2.64 1.76-4.24 1.76-1.61 0-3.11-.63-4.25-1.76-.165-.165-23.25-23.244-23.39-23.43-2.027-2.351-1.924-5.906.31-8.14l5.4-5.41c2.203-2.203 5.762-2.348 8.14-.31.188.141 23.283 23.253 23.45 23.42 2.33 2.33 2.33 6.12 0 8.45zm-86.04-32.53c-24.273 0-44.03-19.753-44.03-44.03 0-24.588 20.037-44.03 44.03-44.03 24.307 0 44.03 19.773 44.03 44.03 0 24.135-19.654 44.03-44.03 44.03zm-60.1-36.48c2.6-2.22 5.29-4.3 8.09-6.2.12 4.83.91 9.49 2.26 13.91-3.63-2.33-7.09-4.91-10.35-7.71zm-32.19-66.08h38.14c.63 12.52 3.13 24.66 7.27 35.97-2.11 4.36-3.62 9.06-4.44 13.99-5.16 3.06-10.05 6.61-14.64 10.63-15.47-15.77-25.32-37.05-26.33-60.59zm26.33-68.59c6.54 5.72 13.72 10.51 21.36 14.3-6.08 14.28-9.48 30.04-9.7 46.29h-37.99c1.01-23.54 10.86-44.82 26.33-60.59zm50.82-26.51c-10.7 9.2-19.53 20.65-26.08 33.55-6.73-3.35-13.07-7.55-18.88-12.53 12.53-10.76 27.97-18.22 44.96-21.02zm107.37 87.1h-37.97c-.22-16.26-3.62-32.02-9.71-46.3 7.64-3.79 14.82-8.57 21.35-14.29 15.47 15.77 25.32 37.05 26.33 60.59zm-26.33 68.59c-4.56-4-9.44-7.53-14.57-10.59-.82-4.97-2.35-9.69-4.47-14.08 4.13-11.3 6.62-23.41 7.25-35.92h38.12c-1.01 23.54-10.86 44.82-26.33 60.59zm-16.14 13.16c1.34-4.39 2.12-9.02 2.25-13.82 2.77 1.89 5.46 3.95 8.03 6.15-3.24 2.79-6.67 5.35-10.28 7.67zm-9.02 17.1 7.54 7.54c-2.687 2.687-1.693 1.693-4.38 4.38-3.885-3.885-3.516-3.516-7.3-7.3 1.47-1.45 2.85-2.99 4.14-4.62zm-86.88-90.85h42.11v6.65c-15.23 1.18-28.65 8.94-37.39 20.44-2.61-8.65-4.22-17.75-4.72-27.09zm87.53 27.05c-8.75-11.5-22.18-19.25-37.42-20.4v-6.65h42.12c-.49 9.32-2.1 18.41-4.7 27.05zm-37.42-35.05v-35.95c11.54-.45 22.78-2.87 33.3-7.08 5.62 13.26 8.77 27.91 8.99 43.03zm0-43.96v-41.76c12.48 9.08 22.66 21.3 29.9 35.43-9.46 3.74-19.54 5.89-29.9 6.33zm-8 0c-10.36-.44-20.43-2.59-29.89-6.33 7.24-14.12 17.42-26.34 29.89-35.42zm0 8.01v35.95h-42.27c.22-15.12 3.37-29.77 8.98-43.03 10.52 4.21 21.75 6.63 33.29 7.08zm45.2-17.6c-6.55-12.9-15.37-24.34-26.06-33.55 16.98 2.8 32.41 10.27 44.93 21.02-5.8 4.97-12.14 9.17-18.87 12.53z"/><path d="m114.16 181.63c4.38 2.985 8.865-3.635 4.51-6.61-5.174-3.538-5.95-10.737-5.95-17.03.457-5.292-7.518-5.939-7.97-.7-.646 6.464 1.026 18.622 9.41 24.34z"/><path d="m130.85 184.53c.408 0 1.039-.108 1.41-.19 4.464-.843 4.221-7.353-.26-7.89-.81-.121-1.121.029-1.83.14-4.79.839-4.181 7.94.68 7.94z"/></g></svg>